<mxfile host="app.diagrams.net" modified="2023-11-02T12:53:33.122Z" agent="Mozilla/5.0 (Windows NT 10.0; Win64; x64) AppleWebKit/537.36 (KHTML, like Gecko) Chrome/118.0.0.0 Safari/537.36" etag="EHmNOWOxUIX7BFyC658u" version="22.0.8" type="device">
  <diagram name="Page-1" id="7wJiBuM7S52IC1Z-cTDV">
    <mxGraphModel dx="1434" dy="782" grid="1" gridSize="10" guides="1" tooltips="1" connect="1" arrows="1" fold="1" page="1" pageScale="1" pageWidth="850" pageHeight="1100" math="0" shadow="0">
      <root>
        <mxCell id="0" />
        <mxCell id="1" parent="0" />
        <mxCell id="9xw6QXrqONif4tSzD4x5-2" value="" style="rounded=0;whiteSpace=wrap;html=1;fillColor=none;perimeterSpacing=0;shadow=0;glass=0;" parent="1" vertex="1">
          <mxGeometry x="120" y="60" width="460" height="330" as="geometry" />
        </mxCell>
        <mxCell id="UZrc7Umz9XyWzxBTjgq0-1" value="" style="rounded=0;whiteSpace=wrap;html=1;fillColor=none;perimeterSpacing=0;dashed=1;shadow=0;glass=0;" parent="1" vertex="1">
          <mxGeometry x="130.00000000000003" y="70" width="160" height="80" as="geometry" />
        </mxCell>
        <mxCell id="9xw6QXrqONif4tSzD4x5-3" value="&lt;b&gt;UC04&lt;br&gt;&lt;/b&gt;Search routes" style="ellipse;whiteSpace=wrap;html=1;strokeWidth=1;" parent="1" vertex="1">
          <mxGeometry x="300" y="200" width="120" height="60" as="geometry" />
        </mxCell>
        <mxCell id="9xw6QXrqONif4tSzD4x5-4" value="&lt;b&gt;UC02&lt;br&gt;&lt;/b&gt;Add category" style="ellipse;whiteSpace=wrap;html=1;strokeWidth=1;" parent="1" vertex="1">
          <mxGeometry x="300" y="80" width="120" height="60" as="geometry" />
        </mxCell>
        <mxCell id="9xw6QXrqONif4tSzD4x5-6" value="&lt;b&gt;UC01&lt;br&gt;&lt;/b&gt;Select point" style="ellipse;whiteSpace=wrap;html=1;strokeWidth=1;" parent="1" vertex="1">
          <mxGeometry x="160" y="80" width="120" height="60" as="geometry" />
        </mxCell>
        <mxCell id="9xw6QXrqONif4tSzD4x5-7" value="User" style="shape=umlActor;verticalLabelPosition=bottom;verticalAlign=top;html=1;outlineConnect=0;" parent="1" vertex="1">
          <mxGeometry x="40" y="200" width="30" height="60" as="geometry" />
        </mxCell>
        <mxCell id="9xw6QXrqONif4tSzD4x5-8" value="" style="endArrow=none;html=1;rounded=0;" parent="1" source="9xw6QXrqONif4tSzD4x5-7" target="9xw6QXrqONif4tSzD4x5-3" edge="1">
          <mxGeometry width="50" height="50" relative="1" as="geometry">
            <mxPoint x="400" y="290" as="sourcePoint" />
            <mxPoint x="450" y="240" as="targetPoint" />
          </mxGeometry>
        </mxCell>
        <mxCell id="9xw6QXrqONif4tSzD4x5-9" value="SmartWalk" style="rounded=0;whiteSpace=wrap;html=1;fillColor=none;dashed=1;strokeColor=none;spacing=0;spacingRight=0;align=center;fontStyle=1;spacingLeft=4;" parent="1" vertex="1">
          <mxGeometry x="120" y="40" width="460" height="20" as="geometry" />
        </mxCell>
        <mxCell id="9xw6QXrqONif4tSzD4x5-10" value="Save route" style="ellipse;whiteSpace=wrap;html=1;strokeWidth=1;" parent="1" vertex="1">
          <mxGeometry x="300" y="310" width="120" height="60" as="geometry" />
        </mxCell>
        <mxCell id="9xw6QXrqONif4tSzD4x5-12" value="" style="endArrow=none;html=1;rounded=1;" parent="1" source="9xw6QXrqONif4tSzD4x5-7" target="9xw6QXrqONif4tSzD4x5-10" edge="1">
          <mxGeometry width="50" height="50" relative="1" as="geometry">
            <mxPoint x="70" y="280" as="sourcePoint" />
            <mxPoint x="290" y="210" as="targetPoint" />
          </mxGeometry>
        </mxCell>
        <mxCell id="9xw6QXrqONif4tSzD4x5-13" value="&amp;lt;&amp;lt;include&amp;gt;&amp;gt;" style="endArrow=classicThin;html=1;rounded=0;fontSize=10;dashed=1;endFill=1;" parent="1" source="9xw6QXrqONif4tSzD4x5-3" target="9xw6QXrqONif4tSzD4x5-6" edge="1">
          <mxGeometry width="50" height="50" relative="1" as="geometry">
            <mxPoint x="440" y="210" as="sourcePoint" />
            <mxPoint x="340" y="210" as="targetPoint" />
            <mxPoint as="offset" />
          </mxGeometry>
        </mxCell>
        <mxCell id="9xw6QXrqONif4tSzD4x5-14" value="&amp;lt;&amp;lt;include&amp;gt;&amp;gt;" style="endArrow=classicThin;html=1;rounded=0;fontSize=10;dashed=1;endFill=1;" parent="1" source="9xw6QXrqONif4tSzD4x5-3" target="9xw6QXrqONif4tSzD4x5-4" edge="1">
          <mxGeometry width="50" height="50" relative="1" as="geometry">
            <mxPoint x="260" y="182" as="sourcePoint" />
            <mxPoint x="230" y="138" as="targetPoint" />
            <mxPoint as="offset" />
          </mxGeometry>
        </mxCell>
        <mxCell id="9xw6QXrqONif4tSzD4x5-15" value="&lt;b&gt;UC03&lt;br&gt;&lt;/b&gt;Add arrow" style="ellipse;whiteSpace=wrap;html=1;strokeWidth=1;" parent="1" vertex="1">
          <mxGeometry x="440" y="80" width="120" height="60" as="geometry" />
        </mxCell>
        <mxCell id="9xw6QXrqONif4tSzD4x5-17" value="&amp;lt;&amp;lt;extend&amp;gt;&amp;gt;" style="endArrow=classicThin;html=1;rounded=0;fontSize=10;dashed=1;endFill=1;" parent="1" source="9xw6QXrqONif4tSzD4x5-15" target="9xw6QXrqONif4tSzD4x5-3" edge="1">
          <mxGeometry width="50" height="50" relative="1" as="geometry">
            <mxPoint x="447" y="185" as="sourcePoint" />
            <mxPoint x="383" y="135" as="targetPoint" />
            <mxPoint as="offset" />
          </mxGeometry>
        </mxCell>
        <mxCell id="UZrc7Umz9XyWzxBTjgq0-2" value="Private storage" style="rounded=0;whiteSpace=wrap;html=1;fillColor=none;dashed=1;strokeColor=none;spacing=0;spacingRight=0;align=center;fontStyle=0;rotation=270;spacingLeft=0;fontSize=10;" parent="1" vertex="1">
          <mxGeometry x="100.00000000000006" y="100" width="80.31" height="20" as="geometry" />
        </mxCell>
        <mxCell id="UZrc7Umz9XyWzxBTjgq0-3" value="&amp;lt;&amp;lt;include&amp;gt;&amp;gt;" style="endArrow=classicThin;html=1;rounded=0;fontSize=10;dashed=1;endFill=1;" parent="1" source="9xw6QXrqONif4tSzD4x5-10" target="9xw6QXrqONif4tSzD4x5-3" edge="1">
          <mxGeometry width="50" height="50" relative="1" as="geometry">
            <mxPoint x="370" y="210" as="sourcePoint" />
            <mxPoint x="370" y="150" as="targetPoint" />
            <mxPoint as="offset" />
          </mxGeometry>
        </mxCell>
      </root>
    </mxGraphModel>
  </diagram>
</mxfile>
